<svg width="345" height="474" viewBox="0 0 345 474" fill="none" xmlns="http://www.w3.org/2000/svg">
<path d="M26.146 113.59L25.0236 114.238L19.2336 107.882L20.3559 107.234L24.6987 112.139L23.1307 105.632L24.1699 105.032L29.0219 109.643L26.9447 103.43L28.0255 102.806L30.6354 110.998L29.5131 111.646L24.5295 106.902L26.146 113.59ZM30.9067 107.308C30.6867 106.927 30.55 106.53 30.4966 106.118C30.4461 105.694 30.4755 105.289 30.5849 104.903C30.6903 104.509 30.8693 104.147 31.1219 103.817C31.3774 103.475 31.6956 103.195 32.0767 102.975C32.4577 102.755 32.8565 102.621 33.2731 102.575C33.6926 102.517 34.0955 102.543 34.482 102.653C34.8715 102.751 35.2334 102.93 35.568 103.19C35.9055 103.438 36.1842 103.753 36.4042 104.134C36.6282 104.522 36.7655 104.928 36.816 105.351C36.8694 105.764 36.8435 106.167 36.738 106.56C36.6355 106.943 36.4566 107.305 36.2011 107.646C35.9485 107.977 35.6317 108.252 35.2507 108.472C34.8696 108.692 34.4694 108.831 34.0499 108.888C33.6333 108.935 33.2303 108.909 32.8409 108.81C32.4475 108.705 32.0821 108.528 31.7446 108.279C31.41 108.02 31.1307 107.696 30.9067 107.308ZM34.7227 107.558C35.2007 107.282 35.504 106.871 35.6326 106.326C35.7641 105.769 35.6818 105.235 35.3858 104.722C35.0898 104.21 34.6701 103.875 34.1266 103.717C33.59 103.556 33.0827 103.613 32.6047 103.889C32.1266 104.165 31.8199 104.578 31.6844 105.127C31.5489 105.677 31.6292 106.208 31.9252 106.72C32.2212 107.233 32.6394 107.573 33.18 107.742C33.7235 107.899 34.2377 107.838 34.7227 107.558ZM38.9172 106.217L35.8632 100.927L36.9024 100.327L37.2924 101.003C37.3038 100.654 37.3962 100.342 37.5696 100.067C37.739 99.784 37.9796 99.5527 38.2914 99.3727C38.4022 99.3087 38.5032 99.2597 38.5943 99.2255C38.6855 99.1914 38.7772 99.1662 38.8694 99.1499L39.4094 100.085C39.2924 100.107 39.1759 100.137 39.06 100.176C38.9441 100.215 38.8341 100.265 38.7302 100.325C38.4254 100.501 38.1997 100.742 38.0532 101.048C37.9097 101.344 37.8641 101.689 37.9164 102.083L39.9564 105.617L38.9172 106.217ZM39.481 95.8869L43.813 103.39L42.7737 103.99L38.5737 96.7156L39.481 95.8869ZM49.0899 100.344L48.8019 99.8447C48.6882 100.16 48.5228 100.449 48.3056 100.713C48.0845 100.97 47.8215 101.187 47.5167 101.363C47.1426 101.579 46.7527 101.711 46.3471 101.761C45.9374 101.803 45.5414 101.773 45.1589 101.671C44.7833 101.564 44.4303 101.385 44.0997 101.132C43.7652 100.873 43.4879 100.553 43.2679 100.171C43.0479 99.7904 42.9112 99.3936 42.8577 98.9811C42.8043 98.5685 42.8253 98.173 42.9209 97.7945C43.0234 97.412 43.2009 97.0555 43.4535 96.7249C43.702 96.3875 44.0134 96.1107 44.3875 95.8947C44.6785 95.7267 44.9851 95.6097 45.3073 95.5438C45.6295 95.4779 45.9529 95.462 46.2775 95.4963L44.8795 93.0749L45.7867 92.2463L50.1187 99.7495L49.0899 100.344ZM44.2803 99.5731C44.5803 100.093 45.0055 100.429 45.5559 100.583C46.1063 100.736 46.6344 100.667 47.1402 100.375C47.4381 100.203 47.6798 99.9891 47.8652 99.7343C48.0575 99.4754 48.1823 99.1955 48.2395 98.8946L46.8535 96.494C46.5683 96.4 46.2655 96.3716 45.9452 96.4087C45.6248 96.4459 45.3192 96.5484 45.0282 96.7164C44.5224 97.0084 44.1963 97.4277 44.0499 97.9741C43.9035 98.5205 43.9803 99.0535 44.2803 99.5731ZM56.6633 94.7794C57.079 94.5394 57.4294 94.2262 57.7144 93.8399C57.9955 93.4467 58.1777 93.0182 58.2609 92.5545L59.398 92.8679C59.2687 93.4599 59.0102 94.0202 58.6226 94.5489C58.2379 95.0666 57.7684 95.4854 57.2142 95.8054C56.6807 96.1134 56.1224 96.3064 55.5393 96.3844C54.9631 96.4584 54.4092 96.4272 53.8778 96.2906C53.3423 96.1471 52.8421 95.9048 52.3772 95.5635C51.9152 95.2113 51.5342 94.7754 51.2342 94.2558C50.9302 93.7292 50.7432 93.1813 50.6732 92.6121C50.6101 92.0388 50.6523 91.4879 50.7998 90.9594C50.9432 90.4239 51.1911 89.9251 51.5433 89.4631C51.9024 88.9972 52.3487 88.6102 52.8822 88.3022C53.4503 87.9742 54.0601 87.7745 54.7117 87.7031C55.3663 87.6208 55.9753 87.6757 56.5388 87.8676L56.2433 89.0359C55.7822 88.8772 55.3076 88.8232 54.8197 88.874C54.3317 88.9248 53.8798 89.0702 53.4642 89.3102C53.0831 89.5302 52.7663 89.8055 52.5137 90.1361C52.2612 90.4666 52.0857 90.8266 51.9872 91.216C51.8916 91.5945 51.8726 91.9935 51.93 92.413C51.9834 92.8255 52.1222 93.2258 52.3462 93.6138C52.5702 94.0018 52.8494 94.3255 53.184 94.585C53.5146 94.8375 53.8711 95.0151 54.2536 95.1175C54.6361 95.22 55.0356 95.248 55.4521 95.2015C55.8716 95.1441 56.2753 95.0034 56.6633 94.7794ZM57.7081 85.3635L62.0401 92.8667L61.0009 93.4667L56.8009 86.1921L57.7081 85.3635ZM64.9912 91.2876C64.4161 91.6196 63.8625 91.7407 63.3302 91.6508C62.798 91.5608 62.3938 91.2769 62.1178 90.7988C61.8298 90.3 61.7943 89.7985 62.0114 89.2945C62.2244 88.7835 62.6635 88.336 63.3286 87.952C63.585 87.804 63.8504 87.6877 64.1249 87.6031C64.3954 87.5116 64.6675 87.4469 64.9412 87.409L64.6172 86.8478C64.4012 86.4737 64.1283 86.2571 63.7986 86.198C63.4689 86.139 63.0962 86.2294 62.6805 86.4694C62.438 86.6094 62.2072 86.7935 61.9879 87.0218C61.7646 87.243 61.5342 87.5239 61.2965 87.8643L60.462 87.3069C60.7489 86.8918 61.0451 86.5407 61.3504 86.2536C61.6517 85.9595 61.9756 85.7125 62.322 85.5125C63.0079 85.1165 63.6339 84.9768 64.2 85.0933C64.7691 85.1989 65.2276 85.5531 65.5756 86.1559L67.5976 89.6581L66.5792 90.2461L66.3152 89.7888C66.1876 90.1119 66.0147 90.3965 65.7965 90.6425C65.5783 90.8886 65.3099 91.1036 64.9912 91.2876ZM63.1035 90.202C63.2515 90.4584 63.4789 90.6042 63.7856 90.6396C64.0993 90.6709 64.4329 90.5846 64.7862 90.3806C65.0633 90.2206 65.2957 90.031 65.4832 89.8119C65.6708 89.5927 65.8101 89.346 65.9012 89.0718L65.3732 88.1572C65.1082 88.1624 64.8509 88.2047 64.6012 88.2842C64.3475 88.3568 64.089 88.4691 63.8258 88.6211C63.4517 88.8371 63.1997 89.0888 63.07 89.3761C62.9403 89.6634 62.9515 89.9388 63.1035 90.202ZM67.9003 88.5688L68.0654 87.5589C68.4666 87.6137 68.8432 87.618 69.1952 87.5718C69.5502 87.5146 69.8766 87.4001 70.1746 87.2281C70.5487 87.0121 70.8115 86.7633 70.9631 86.4818C71.1146 86.2003 71.1224 85.9418 70.9864 85.7062C70.8784 85.5192 70.7231 85.4102 70.5206 85.3794C70.318 85.3485 70.0592 85.3963 69.7443 85.5227L68.7102 85.9396C68.1465 86.1634 67.6596 86.2321 67.2494 86.1456C66.8422 86.0482 66.5205 85.7951 66.2845 85.3863C66.0085 84.9083 65.9771 84.4138 66.1901 83.9028C66.3992 83.3849 66.812 82.9479 67.4286 82.5919C67.8166 82.3679 68.2158 82.2113 68.6262 82.1222C69.0435 82.029 69.4845 82.0008 69.949 82.0374L69.815 83.0293C69.412 83.0033 69.048 83.0288 68.7228 83.1056C68.4006 83.1715 68.101 83.2845 67.8239 83.4445C67.5052 83.6285 67.2868 83.8423 67.1688 84.086C67.0508 84.3296 67.0538 84.5588 67.1778 84.7736C67.2898 84.9676 67.4417 85.0785 67.6333 85.1065C67.8279 85.1234 68.095 85.0662 68.4348 84.9347L69.4689 84.5178C70.0325 84.294 70.5214 84.2288 70.9356 84.3222C71.3567 84.4116 71.6853 84.6607 71.9213 85.0695C72.0573 85.3051 72.1264 85.5608 72.1286 85.8366C72.1338 86.1015 72.0779 86.3647 71.961 86.6262C71.851 86.8837 71.6869 87.1355 71.4687 87.3816C71.2465 87.6207 70.9795 87.8303 70.6677 88.0103C70.2105 88.2743 69.7429 88.4564 69.2651 88.5568C68.7942 88.6532 68.3392 88.6572 67.9003 88.5688ZM72.7919 85.7446L72.9571 84.7347C73.3583 84.7895 73.7348 84.7938 74.0869 84.7476C74.4419 84.6904 74.7683 84.5758 75.0662 84.4038C75.4404 84.1878 75.7032 83.9391 75.8548 83.6576C76.0063 83.3761 76.0141 83.1176 75.8781 82.882C75.7701 82.695 75.6148 82.586 75.4123 82.5552C75.2097 82.5243 74.9509 82.5721 74.6359 82.6985L73.6018 83.1154C73.0382 83.3392 72.5513 83.4079 72.1411 83.3214C71.7339 83.224 71.4122 82.9709 71.1762 82.5621C70.9002 82.0841 70.8687 81.5895 71.0818 81.0786C71.2908 80.5607 71.7037 80.1237 72.3203 79.7677C72.7083 79.5437 73.1075 79.3871 73.5179 79.298C73.9352 79.2048 74.3762 79.1766 74.8407 79.2132L74.7067 80.2051C74.3037 80.1791 73.9397 80.2045 73.6145 80.2814C73.2923 80.3473 72.9927 80.4603 72.7155 80.6203C72.3968 80.8043 72.1785 81.0181 72.0605 81.2617C71.9425 81.5054 71.9455 81.7346 72.0695 81.9494C72.1815 82.1434 72.3333 82.2543 72.525 82.2822C72.7195 82.2992 72.9867 82.242 73.3265 82.1105L74.3606 81.6936C74.9242 81.4698 75.4131 81.4046 75.8273 81.498C76.2484 81.5874 76.577 81.8365 76.813 82.2453C76.949 82.4808 77.0181 82.7365 77.0203 83.0124C77.0255 83.2773 76.9696 83.5405 76.8527 83.802C76.7427 84.0595 76.5786 84.3113 76.3604 84.5573C76.1382 84.7965 75.8712 85.006 75.5594 85.186C75.1022 85.45 74.6346 85.6322 74.1568 85.7326C73.6859 85.829 73.2309 85.833 72.7919 85.7446Z" fill="white"/>
<path d="M92.565 83.2099C89.6047 76.6365 85.6099 67.5215 81.0305 62.0953C62.2463 72.3658 43.595 82.7441 25.2793 93.8589C18.3292 98.0767 11.4971 103.763 4.03412 107.004C7.50121 112.405 10.7105 117.945 14.1284 123.363C15.5282 125.582 17.7391 127.54 18.8063 129.949C39.4716 117.81 59.1498 103.922 80.3095 92.6057C84.3653 90.4367 88.0408 87.5112 92.2955 85.6894C81.2873 90.861 71.0017 97.8288 60.5597 104.035C53.5786 108.184 45.9316 111.183 38.9043 115.309C32.2595 119.211 26.3604 124.388 19.6561 128.142C13.4393 121.084 6.65321 114.164 0.95278 106.67C5.14248 104.133 9.03817 101.099 13.2519 98.6196C35.6825 85.4228 58.3712 72.7401 81.4068 60.6553C85.5017 67.8369 87.8144 75.7154 91.4706 83.053C86.6169 76.034 83.8626 67.7888 79.2007 60.6896C76.0586 61.6491 73.0707 63.943 70.2203 65.5248C62.7089 69.6929 55.2611 73.7935 47.9537 78.3146C38.763 84.0009 29.7004 89.8046 20.5889 95.6246C14.3437 99.6137 6.88886 103.211 1.45871 108.371C6.61581 115.793 11.8967 123.147 17.1375 130.502" stroke="white" stroke-miterlimit="1.5" stroke-linecap="round" stroke-linejoin="round"/>
<path d="M75.1077 51.8562C75.0625 48.8459 75.106 45.8507 75.1871 42.8422" stroke="white" stroke-miterlimit="1.5" stroke-linecap="round" stroke-linejoin="round"/>
<path d="M81.4219 54.0819C82.5127 50.85 84.1277 47.8527 85.531 44.7573" stroke="white" stroke-miterlimit="1.5" stroke-linecap="round" stroke-linejoin="round"/>
<path d="M86.4997 58.2231C88.59 56.2722 90.9509 54.4936 93.574 53.3501" stroke="white" stroke-miterlimit="1.5" stroke-linecap="round" stroke-linejoin="round"/>
<path d="M182.941 122.095C220.415 126.535 323.273 124.828 331.941 73.7117C342.777 9.81688 190.941 36 312.441 152.712C398.349 235.234 310.941 441.288 0.941162 472.5" stroke="#E0E5F3" stroke-width="2" stroke-linecap="round" stroke-dasharray="10 10"/>
<path d="M306.441 0L308.122 10.6862L318.805 8.98278L309.161 13.8838L314.082 23.5172L306.441 15.86L298.8 23.5172L303.721 13.8838L294.077 8.98278L304.76 10.6862L306.441 0Z" fill="white"/>
<path d="M240.441 376L242.122 386.686L252.805 384.983L243.161 389.884L248.082 399.517L240.441 391.86L232.8 399.517L237.721 389.884L228.077 384.983L238.76 386.686L240.441 376Z" fill="white"/>
</svg>
