<svg width="210" height="183" viewBox="0 0 210 183" fill="none" xmlns="http://www.w3.org/2000/svg">
<path fill-rule="evenodd" clip-rule="evenodd" d="M0 0H210V183H0V0ZM0.328125 0.326786H25.9219V25.8161H0.328125V0.326786ZM26.5781 0.326786H52.1719V25.8161H26.5781V0.326786ZM78.4219 0.326786H52.8281V25.8161H78.4219V0.326786ZM79.0781 0.326786H104.672V25.8161H79.0781V0.326786ZM130.922 0.326786H105.328V25.8161H130.922V0.326786ZM131.578 0.326786H157.172V25.8161H131.578V0.326786ZM183.422 0.326786H157.828V25.8161H183.422V0.326786ZM184.078 0.326786H209.672V25.8161H184.078V0.326786ZM25.9219 26.4696H0.328125V51.9589H25.9219V26.4696ZM26.5781 26.4696H52.1719V51.9589H26.5781V26.4696ZM78.4219 26.4696H52.8281V51.9589H78.4219V26.4696ZM79.0781 26.4696H104.672V51.9589H79.0781V26.4696ZM130.922 26.4696H105.328V51.9589H130.922V26.4696ZM131.578 26.4696H157.172V51.9589H131.578V26.4696ZM183.422 26.4696H157.828V51.9589H183.422V26.4696ZM184.078 26.4696H209.672V51.9589H184.078V26.4696ZM25.9219 52.6125H0.328125V78.1018H25.9219V52.6125ZM26.5781 52.6125H52.1719V78.1018H26.5781V52.6125ZM78.4219 52.6125H52.8281V78.1018H78.4219V52.6125ZM79.0781 52.6125H104.672V78.1018H79.0781V52.6125ZM130.922 52.6125H105.328V78.1018H130.922V52.6125ZM131.578 52.6125H157.172V78.1018H131.578V52.6125ZM183.422 52.6125H157.828V78.1018H183.422V52.6125ZM184.078 52.6125H209.672V78.1018H184.078V52.6125ZM25.9219 78.7554H0.328125V104.245H25.9219V78.7554ZM26.5781 78.7554H52.1719V104.245H26.5781V78.7554ZM78.4219 78.7554H52.8281V104.245H78.4219V78.7554ZM79.0781 78.7554H104.672V104.245H79.0781V78.7554ZM130.922 78.7554H105.328V104.245H130.922V78.7554ZM131.578 78.7554H157.172V104.245H131.578V78.7554ZM183.422 78.7554H157.828V104.245H183.422V78.7554ZM184.078 78.7554H209.672V104.245H184.078V78.7554ZM25.9219 104.898H0.328125V130.387H25.9219V104.898ZM26.5781 104.898H52.1719V130.387H26.5781V104.898ZM78.4219 104.898H52.8281V130.387H78.4219V104.898ZM79.0781 104.898H104.672V130.387H79.0781V104.898ZM130.922 104.898H105.328V130.387H130.922V104.898ZM131.578 104.898H157.172V130.387H131.578V104.898ZM183.422 104.898H157.828V130.387H183.422V104.898ZM184.078 104.898H209.672V130.387H184.078V104.898ZM25.9219 131.041H0.328125V156.53H25.9219V131.041ZM26.5781 131.041H52.1719V156.53H26.5781V131.041ZM78.4219 131.041H52.8281V156.53H78.4219V131.041ZM79.0781 131.041H104.672V156.53H79.0781V131.041ZM130.922 131.041H105.328V156.53H130.922V131.041ZM131.578 131.041H157.172V156.53H131.578V131.041ZM183.422 131.041H157.828V156.53H183.422V131.041ZM184.078 131.041H209.672V156.53H184.078V131.041ZM25.9219 157.184H0.328125V182.673H25.9219V157.184ZM26.5781 157.184H52.1719V182.673H26.5781V157.184ZM78.4219 157.184H52.8281V182.673H78.4219V157.184ZM79.0781 157.184H104.672V182.673H79.0781V157.184ZM130.922 157.184H105.328V182.673H130.922V157.184ZM131.578 157.184H157.172V182.673H131.578V157.184ZM183.422 157.184H157.828V182.673H183.422V157.184ZM184.078 157.184H209.672V182.673H184.078V157.184Z" fill="url(#paint0_linear_1_750)"/>
<defs>
<linearGradient id="paint0_linear_1_750" x1="105" y1="-96" x2="105" y2="183" gradientUnits="userSpaceOnUse">
<stop stop-color="white"/>
<stop offset="0.621195" stop-color="white" stop-opacity="0"/>
</linearGradient>
</defs>
</svg>
