<svg width="83" height="19" viewBox="0 0 83 19" fill="none" xmlns="http://www.w3.org/2000/svg">
<path fill-rule="evenodd" clip-rule="evenodd" d="M3.19231 17.4167C3.19231 16.5422 2.47769 15.8333 1.59615 15.8333C0.714622 15.8333 -1.07433e-07 16.5422 -6.92097e-08 17.4167C-3.09862e-08 18.2911 0.714622 19 1.59615 19C2.47769 19 3.19231 18.2911 3.19231 17.4167ZM19.1538 17.4167C19.1538 16.5422 18.4392 15.8333 17.5577 15.8333C16.6762 15.8333 15.9615 16.5422 15.9615 17.4167C15.9615 18.2911 16.6762 19 17.5577 19C18.4392 19 19.1538 18.2911 19.1538 17.4167ZM33.5192 15.8333C34.4008 15.8333 35.1154 16.5422 35.1154 17.4167C35.1154 18.2911 34.4008 19 33.5192 19C32.6377 19 31.9231 18.2911 31.9231 17.4167C31.9231 16.5422 32.6377 15.8333 33.5192 15.8333ZM51.0769 17.4167C51.0769 16.5422 50.3623 15.8333 49.4808 15.8333C48.5992 15.8333 47.8846 16.5422 47.8846 17.4167C47.8846 18.2911 48.5992 19 49.4808 19C50.3623 19 51.0769 18.2911 51.0769 17.4167ZM65.4423 15.8333C66.3238 15.8333 67.0385 16.5422 67.0385 17.4167C67.0385 18.2911 66.3238 19 65.4423 19C64.5608 19 63.8462 18.2911 63.8462 17.4167C63.8462 16.5422 64.5608 15.8333 65.4423 15.8333ZM83 17.4167C83 16.5422 82.2854 15.8333 81.4038 15.8333C80.5223 15.8333 79.8077 16.5422 79.8077 17.4167C79.8077 18.2911 80.5223 19 81.4038 19C82.2854 19 83 18.2911 83 17.4167ZM1.59615 -6.97701e-08C2.47768 -1.08303e-07 3.19231 0.708881 3.19231 1.58333C3.19231 2.45778 2.47768 3.16667 1.59615 3.16667C0.714622 3.16667 -7.23083e-07 2.45778 -7.61307e-07 1.58333C-7.9953e-07 0.708881 0.714622 -3.12371e-08 1.59615 -6.97701e-08ZM19.1538 1.58333C19.1538 0.708881 18.4392 -8.06004e-07 17.5577 -7.67471e-07C16.6762 -7.28938e-07 15.9615 0.708881 15.9615 1.58333C15.9615 2.45778 16.6762 3.16667 17.5577 3.16667C18.4392 3.16667 19.1538 2.45778 19.1538 1.58333ZM33.5192 -1.46517e-06C34.4008 -1.50371e-06 35.1154 0.70888 35.1154 1.58333C35.1154 2.45778 34.4008 3.16667 33.5192 3.16667C32.6377 3.16667 31.9231 2.45778 31.9231 1.58333C31.9231 0.70888 32.6377 -1.42664e-06 33.5192 -1.46517e-06ZM51.0769 1.58333C51.0769 0.708879 50.3623 -2.20141e-06 49.4808 -2.16287e-06C48.5992 -2.12434e-06 47.8846 0.708879 47.8846 1.58333C47.8846 2.45778 48.5992 3.16666 49.4808 3.16666C50.3623 3.16666 51.0769 2.45778 51.0769 1.58333ZM65.4423 -2.86057e-06C66.3238 -2.89911e-06 67.0385 0.708878 67.0385 1.58333C67.0385 2.45778 66.3238 3.16666 65.4423 3.16666C64.5608 3.16666 63.8462 2.45778 63.8462 1.58333C63.8462 0.708879 64.5608 -2.82204e-06 65.4423 -2.86057e-06ZM83 1.58333C83 0.708878 82.2854 -3.59681e-06 81.4038 -3.55828e-06C80.5223 -3.51974e-06 79.8077 0.708878 79.8077 1.58333C79.8077 2.45778 80.5223 3.16666 81.4038 3.16666C82.2854 3.16666 83 2.45778 83 1.58333Z" fill="white"/>
</svg>
