<svg width="100" height="100" viewBox="0 0 100 100" fill="none" xmlns="http://www.w3.org/2000/svg">
<g filter="url(#filter0_b_1_771)">
<circle cx="50" cy="50" r="50" fill="white" fill-opacity="0.5"/>
</g>
<path d="M45 56.6667C44.8527 56.6667 44.7114 56.6082 44.6072 56.504C44.503 56.3998 44.4445 56.2585 44.4445 56.1112V43.889C44.4445 43.7924 44.4696 43.6975 44.5175 43.6137C44.5653 43.5299 44.6342 43.4599 44.7173 43.4108C44.8004 43.3617 44.8949 43.3351 44.9914 43.3336C45.088 43.3321 45.1832 43.3558 45.2678 43.4023L56.3789 49.5134C56.466 49.5614 56.5386 49.6318 56.5892 49.7174C56.6398 49.803 56.6665 49.9006 56.6665 50.0001C56.6665 50.0995 56.6398 50.1971 56.5892 50.2827C56.5386 50.3683 56.466 50.4388 56.3789 50.4867L45.2678 56.5978C45.1858 56.643 45.0937 56.6667 45 56.6667Z" fill="#FFC93E"/>
<path d="M24.4495 77.2245L25.8419 78.6878L21.0999 83.1997L19.6459 81.6715C19.2082 81.2115 18.9286 80.7275 18.8071 80.2196C18.6841 79.7132 18.7163 79.2046 18.9039 78.6939C19.0898 78.1846 19.4283 77.6964 19.9191 77.2294C20.4131 76.7594 20.9221 76.4427 21.4461 76.2794C21.9685 76.1176 22.4856 76.1139 22.9971 76.2683C23.5072 76.4241 23.9913 76.7429 24.4495 77.2245ZM24.7861 78.5983L23.9754 77.7462C23.6024 77.3541 23.2176 77.1011 22.821 76.9873C22.4245 76.8734 22.0263 76.8861 21.6265 77.0254C21.2266 77.1647 20.8338 77.4179 20.4479 77.7851C20.065 78.1493 19.795 78.5254 19.6376 78.9133C19.4787 79.3027 19.4434 79.6922 19.5317 80.0817C19.6184 80.4727 19.8381 80.8534 20.1905 81.2239L21.063 82.1408L24.7861 78.5983Z" fill="black"/>
<path d="M18.2827 68.6877C18.4233 68.9651 18.4987 69.2434 18.5088 69.5226C18.517 69.8027 18.455 70.0598 18.3229 70.294C18.1889 70.5291 17.9793 70.719 17.6943 70.8635C17.4434 70.9906 17.215 71.0443 17.0091 71.0244C16.8012 71.0056 16.6107 70.9361 16.4376 70.816C16.2645 70.6959 16.1055 70.5472 15.9606 70.3698C15.8129 70.1915 15.6742 70.0074 15.5445 69.8175C15.3755 69.5688 15.2405 69.3661 15.1396 69.2094C15.0358 69.0518 14.9428 68.9461 14.8605 68.8922C14.7773 68.8364 14.6816 68.836 14.5732 68.8909L14.5504 68.9025C14.2692 69.045 14.0896 69.2328 14.0118 69.4657C13.933 69.6967 13.9722 69.9672 14.1292 70.2769C14.292 70.5981 14.4899 70.8143 14.723 70.9255C14.9561 71.0366 15.1713 71.0888 15.3685 71.082L15.4641 71.8362C15.1402 71.857 14.856 71.81 14.6115 71.695C14.364 71.5792 14.1535 71.4231 13.98 71.2268C13.8036 71.0296 13.6595 70.8207 13.5478 70.6003C13.4765 70.4596 13.4117 70.2894 13.3534 70.0896C13.2923 69.8889 13.2697 69.677 13.2856 69.454C13.3006 69.229 13.3828 69.007 13.5321 68.788C13.6815 68.569 13.9301 68.3713 14.2779 68.195L17.1628 66.7328L17.5038 67.4055L16.9109 67.7061L16.9282 67.7403C17.0463 67.7377 17.1865 67.7622 17.3488 67.8137C17.5111 67.8653 17.675 67.9601 17.8406 68.0983C18.0062 68.2366 18.1536 68.433 18.2827 68.6877ZM17.6263 68.8914C17.4914 68.6253 17.3255 68.4275 17.1285 68.2981C16.9305 68.1667 16.7253 68.0963 16.5127 68.087C16.2992 68.0758 16.1012 68.1164 15.9188 68.2089L15.303 68.521C15.3517 68.5322 15.4148 68.579 15.4925 68.6615C15.5672 68.743 15.6469 68.8412 15.7314 68.956C15.813 69.0699 15.8912 69.182 15.9662 69.2921C16.0382 69.4013 16.0973 69.4896 16.1434 69.557C16.2549 69.7202 16.3748 69.8649 16.5031 69.9909C16.6287 70.116 16.7654 70.1996 16.9133 70.2417C17.0584 70.2828 17.2164 70.26 17.3875 70.1733C17.6212 70.0549 17.7541 69.8788 17.7862 69.6452C17.8154 69.4106 17.7621 69.1593 17.6263 68.8914Z" fill="black"/>
<path d="M8.64959 61.9579L14.9997 60.3705L15.1826 61.1023L8.83251 62.6896L8.64959 61.9579Z" fill="black"/>
<path d="M14.0955 54.7725L9.19699 55.0944L9.14753 54.3418L14.0461 54.0199L14.0955 54.7725ZM8.35542 54.7654C8.36506 54.9121 8.32341 55.0418 8.23047 55.1547C8.13739 55.2655 8.02069 55.3254 7.88037 55.3347C7.74005 55.3439 7.6165 55.2997 7.50973 55.2021C7.40281 55.1023 7.34454 54.9791 7.3349 54.8324C7.32526 54.6857 7.36698 54.557 7.46006 54.4463C7.553 54.3334 7.66963 54.2723 7.80995 54.2631C7.95027 54.2539 8.07389 54.2992 8.1808 54.3989C8.28758 54.4965 8.34578 54.6187 8.35542 54.7654Z" fill="black"/>
<path d="M14.5032 46.4141C14.4284 46.8509 14.2587 47.2164 13.9943 47.5105C13.7302 47.8024 13.3955 48.0088 12.99 48.1295C12.5849 48.2482 12.1324 48.2646 11.6326 48.179C11.1286 48.0926 10.7043 47.9258 10.3597 47.6787C10.0154 47.4294 9.76743 47.1232 9.61568 46.7599C9.46429 46.3946 9.42603 45.9935 9.5009 45.5567C9.57577 45.1199 9.74524 44.7555 10.0093 44.4635C10.2737 44.1695 10.6095 43.9633 11.0168 43.845C11.4244 43.7246 11.8802 43.7077 12.3842 43.794C12.884 43.8797 13.305 44.047 13.6471 44.2959C13.9896 44.5426 14.2365 44.8487 14.3879 45.214C14.5397 45.5773 14.5781 45.9773 14.5032 46.4141ZM13.8354 46.2997C13.8923 45.9679 13.854 45.6803 13.7206 45.4369C13.5873 45.1935 13.3908 44.9967 13.1312 44.8462C12.8716 44.6958 12.5801 44.5929 12.2567 44.5375C11.9333 44.482 11.6232 44.4818 11.3262 44.5369C11.0293 44.5919 10.7763 44.7117 10.5674 44.8964C10.3585 45.0811 10.2256 45.3394 10.1687 45.6712C10.1118 46.003 10.1512 46.2908 10.2866 46.5345C10.4221 46.7782 10.6207 46.9754 10.8824 47.1262C11.144 47.277 11.4366 47.3801 11.76 47.4355C12.0834 47.491 12.3925 47.491 12.6874 47.4356C12.9822 47.3802 13.2331 47.26 13.4399 47.075C13.6467 46.8899 13.7785 46.6315 13.8354 46.2997Z" fill="black"/>
<path d="M21.2965 30.1731L20.0357 31.7512L14.922 27.6654L16.2387 26.0174C16.6351 25.5214 17.0766 25.1787 17.5633 24.9894C18.0483 24.7988 18.5566 24.7617 19.0881 24.8782C19.6179 24.9933 20.1475 25.2623 20.6768 25.6853C21.2095 26.1109 21.5923 26.5722 21.8252 27.0692C22.0564 27.5649 22.1303 28.0766 22.0467 28.6044C21.9616 29.1309 21.7115 29.6538 21.2965 30.1731ZM19.9811 30.693L20.7153 29.7742C21.0531 29.3514 21.2515 28.9358 21.3105 28.5275C21.3695 28.1191 21.3028 27.7264 21.1106 27.3491C20.9184 26.9719 20.6142 26.617 20.198 26.2845C19.7852 25.9547 19.376 25.7382 18.9703 25.6349C18.5629 25.5304 18.1723 25.5482 17.7983 25.6885C17.4227 25.8275 17.0753 26.0968 16.7561 26.4963L15.9661 27.4851L19.9811 30.693Z" fill="black"/>
<path d="M27.7157 23.6691L24.7444 19.7613L25.3449 19.3048L28.3161 23.2126L27.7157 23.6691ZM24.5545 18.8778C24.4375 18.9668 24.3063 19.0037 24.1609 18.9885C24.0171 18.9719 23.9027 18.9077 23.8176 18.7958C23.7325 18.6838 23.7012 18.5564 23.7237 18.4135C23.7479 18.2693 23.8185 18.1527 23.9355 18.0637C24.0526 17.9747 24.1829 17.9385 24.3266 17.955C24.4721 17.9703 24.5873 18.0339 24.6724 18.1458C24.7576 18.2577 24.788 18.3858 24.7638 18.53C24.7413 18.6729 24.6716 18.7889 24.5545 18.8778Z" fill="black"/>
<path d="M35.6416 21.0877C35.3082 21.2345 35.0026 21.3178 34.725 21.3376C34.4482 21.3593 34.1994 21.3362 33.9785 21.2681C33.7605 21.2011 33.5703 21.1103 33.408 20.9955L33.788 20.3673C33.8864 20.4217 34.0066 20.4805 34.1485 20.5438C34.2913 20.6089 34.4627 20.6441 34.6628 20.6491C34.8657 20.6552 35.1027 20.5986 35.3738 20.4793C35.7365 20.3196 35.9972 20.1001 36.1559 19.8207C36.3146 19.5413 36.3115 19.2144 36.1467 18.84L35.7449 17.9273L35.6864 17.9531C35.6718 18.0573 35.6443 18.1905 35.6039 18.3526C35.5646 18.5119 35.4788 18.6766 35.3464 18.8466C35.2152 19.0138 35.0033 19.1618 34.7108 19.2905C34.3481 19.4502 33.9846 19.5078 33.6205 19.4632C33.2583 19.4178 32.9212 19.2682 32.6093 19.0145C32.2993 18.7598 32.0413 18.3985 31.8352 17.9305C31.6326 17.4702 31.5371 17.0339 31.5487 16.6214C31.5595 16.2069 31.668 15.8425 31.8742 15.5283C32.0795 15.212 32.3713 14.9707 32.7496 14.8041C33.0422 14.6753 33.2957 14.6219 33.5102 14.6439C33.7258 14.663 33.9065 14.7139 34.0522 14.7964C34.1991 14.8761 34.315 14.9438 34.4001 14.9994L34.4703 14.9685L34.156 14.2548L34.823 13.9612L36.8576 18.5829C37.0276 18.969 37.0781 19.3216 37.009 19.6406C36.9428 19.9608 36.7873 20.2423 36.5426 20.485C36.3008 20.7288 36.0005 20.9297 35.6416 21.0877ZM34.5314 18.6292C34.8083 18.5073 35.0144 18.3409 35.1497 18.13C35.285 17.9191 35.35 17.6728 35.3447 17.3911C35.3394 17.1094 35.2638 16.8028 35.1179 16.4713C34.9754 16.1476 34.8009 15.8834 34.5943 15.6787C34.3878 15.4739 34.1581 15.3434 33.9051 15.2872C33.6522 15.2309 33.3854 15.2646 33.1045 15.3882C32.812 15.517 32.6009 15.6984 32.4711 15.9324C32.3433 16.1656 32.2856 16.4285 32.298 16.721C32.3123 17.0127 32.3865 17.3106 32.5204 17.6149C32.6578 17.9269 32.828 18.1813 33.0311 18.3783C33.2353 18.5724 33.4639 18.6952 33.7171 18.7467C33.9713 18.7954 34.2428 18.7563 34.5314 18.6292Z" fill="black"/>
<path d="M42.9228 16.704L42.0472 11.8736L42.7893 11.7391L43.665 16.5694L42.9228 16.704ZM42.2786 11.0001C42.1339 11.0264 42.0003 10.9997 41.8776 10.9202C41.757 10.8403 41.6841 10.7311 41.6591 10.5927C41.634 10.4544 41.6639 10.3266 41.7487 10.2094C41.8357 10.0919 41.9515 10.02 42.0962 9.9938C42.2408 9.96758 42.3735 9.99442 42.494 10.0743C42.6167 10.1539 42.6906 10.2628 42.7157 10.4012C42.7408 10.5396 42.7098 10.6675 42.6229 10.7851C42.538 10.9022 42.4233 10.9739 42.2786 11.0001Z" fill="black"/>
<path d="M51.5448 11.1532L51.5304 11.7923L48.987 11.7352L49.0014 11.0962L51.5448 11.1532ZM49.769 9.93696L50.5231 9.95387L50.4182 14.6317C50.4134 14.8447 50.4407 15.0051 50.5001 15.113C50.5617 15.2188 50.6411 15.291 50.7382 15.3294C50.8376 15.3657 50.9427 15.3851 51.0534 15.3876C51.1365 15.3894 51.2048 15.3867 51.2582 15.3794C51.3117 15.3699 51.3545 15.3624 51.3866 15.3567L51.5248 16.0375C51.4732 16.0555 51.4014 16.0731 51.3094 16.0902C51.2173 16.1095 51.101 16.1175 50.9604 16.1144C50.7474 16.1096 50.5397 16.0591 50.3372 15.9629C50.1369 15.8668 49.9718 15.7235 49.8418 15.533C49.7139 15.3426 49.6532 15.1047 49.6596 14.8193L49.769 9.93696Z" fill="black"/>
<path d="M58.6515 17.245C58.3517 17.1624 58.0951 17.0308 57.8818 16.8505C57.6691 16.6681 57.5205 16.4492 57.4362 16.1939C57.3524 15.9365 57.353 15.6538 57.438 15.3457C57.5127 15.0745 57.6267 14.8695 57.78 14.7305C57.9338 14.5895 58.1133 14.4953 58.3187 14.448C58.524 14.4007 58.741 14.3832 58.9697 14.3954C59.201 14.4062 59.4305 14.4274 59.6582 14.4593C59.956 14.5016 60.1968 14.5381 60.3806 14.5689C60.567 14.5982 60.7078 14.6005 60.803 14.5759C60.9002 14.5519 60.965 14.4814 60.9973 14.3643L61.0041 14.3396C61.0879 14.0356 61.0698 13.7765 60.9498 13.5622C60.832 13.3484 60.6056 13.1954 60.2708 13.1031C59.9237 13.0074 59.6305 13.0084 59.3914 13.106C59.1524 13.2037 58.969 13.3277 58.8413 13.4782L58.2191 13.0414C58.4216 12.7878 58.6477 12.6092 58.8972 12.5057C59.1494 12.4006 59.4065 12.3499 59.6685 12.3536C59.9331 12.3558 60.1845 12.3898 60.4228 12.4555C60.5748 12.4974 60.7443 12.564 60.9313 12.6553C61.1209 12.7452 61.2929 12.871 61.4472 13.0329C61.6035 13.1954 61.7124 13.4055 61.774 13.6634C61.8355 13.9213 61.8144 14.2381 61.7108 14.614L60.8512 17.7321L60.1241 17.5316L60.3007 16.8908L60.2638 16.8806C60.1862 16.9697 60.0737 17.0569 59.9264 17.1423C59.7791 17.2277 59.5986 17.2851 59.3849 17.3146C59.1713 17.3441 58.9268 17.3209 58.6515 17.245ZM58.9425 16.6224C59.2301 16.7017 59.4881 16.712 59.7164 16.6534C59.9468 16.5954 60.1369 16.4909 60.2868 16.3399C60.4388 16.1895 60.542 16.0157 60.5963 15.8185L60.7798 15.153C60.7388 15.1815 60.6617 15.1967 60.5484 15.1987C60.4378 15.1991 60.3116 15.1919 60.1698 15.1771C60.0306 15.1609 59.8951 15.1434 59.7632 15.1247C59.6339 15.1046 59.5289 15.0889 59.448 15.0776C59.2522 15.0502 59.0645 15.0415 58.8849 15.0517C58.7079 15.0604 58.5541 15.1052 58.4234 15.1864C58.2954 15.266 58.2059 15.3982 58.1549 15.5831C58.0853 15.8358 58.1261 16.0525 58.2773 16.2335C58.4312 16.4129 58.6529 16.5426 58.9425 16.6224Z" fill="black"/>
<path d="M70.1119 14.6475L67.0132 20.413L66.3488 20.0559L69.4475 14.2904L70.1119 14.6475Z" fill="black"/>
<path d="M77.2979 28.6836L76.8088 28.0118L83.515 26.1023L83.9966 26.7638L80.1195 32.5593L79.6305 31.8875L82.9337 27.0632L82.9036 27.0218L77.2979 28.6836ZM79.5455 27.4267L81.5169 30.1346L80.9485 30.5484L78.9771 27.8406L79.5455 27.4267Z" fill="black"/>
<path d="M81.7739 40.4557C81.657 40.1107 81.6009 39.799 81.6056 39.5207C81.6083 39.2431 81.6532 38.9972 81.7404 38.7832C81.8263 38.5719 81.9336 38.3905 82.0622 38.2389L82.6546 38.6726C82.5917 38.7659 82.5225 38.8804 82.447 39.0162C82.3695 39.1527 82.3195 39.3204 82.2969 39.5193C82.273 39.7209 82.3085 39.9619 82.4035 40.2424C82.5307 40.6178 82.7265 40.8968 82.9908 41.0794C83.2552 41.262 83.5811 41.2877 83.9685 41.1565L84.913 40.8365L84.8925 40.7759C84.7899 40.7522 84.6597 40.7131 84.5018 40.6586C84.3465 40.6055 84.19 40.5055 84.0323 40.3587C83.8773 40.2133 83.7485 39.9892 83.646 39.6865C83.5188 39.3111 83.4934 38.944 83.5698 38.5852C83.6469 38.2284 83.8255 37.9058 84.1058 37.6174C84.3867 37.331 84.7693 37.1057 85.2536 36.9416C85.7299 36.7803 86.1729 36.7235 86.5828 36.7714C86.9947 36.8185 87.3482 36.9586 87.6431 37.1917C87.94 37.424 88.1548 37.7359 88.2874 38.1274C88.39 38.4301 88.4209 38.6873 88.3802 38.8991C88.3422 39.1122 88.2756 39.2877 88.1806 39.4256C88.0883 39.5649 88.0107 39.6744 87.9478 39.7543L87.9724 39.8269L88.711 39.5767L88.9448 40.2668L84.1621 41.8872C83.7626 42.0226 83.4069 42.0419 83.0951 41.945C82.782 41.8509 82.5154 41.6713 82.2951 41.4062C82.0734 41.1439 81.8997 40.827 81.7739 40.4557ZM84.3205 39.5659C84.4176 39.8525 84.5652 40.0724 84.7634 40.2257C84.9616 40.3791 85.2012 40.4655 85.4823 40.485C85.7633 40.5045 86.0754 40.4561 86.4185 40.3399C86.7534 40.2264 87.032 40.0758 87.2541 39.888C87.4762 39.7003 87.6264 39.483 87.7047 39.236C87.783 38.989 87.7729 38.7202 87.6744 38.4296C87.5719 38.1269 87.4097 37.9006 87.188 37.7508C86.9669 37.603 86.7102 37.5224 86.4177 37.509C86.1259 37.4976 85.8226 37.5453 85.5077 37.6519C85.1849 37.7613 84.9164 37.9085 84.7024 38.0935C84.4911 38.2798 84.3486 38.4968 84.275 38.7445C84.2042 38.9934 84.2193 39.2673 84.3205 39.5659Z" fill="black"/>
<path d="M85.5525 50.1308C85.5306 49.6583 85.6159 49.2458 85.8086 48.8935C86.0034 48.5431 86.2849 48.2666 86.653 48.0639C87.0234 47.8633 87.4597 47.7513 87.962 47.7279C88.4643 47.7046 88.9113 47.7755 89.3029 47.9407C89.6967 48.108 90.0088 48.3516 90.2391 48.6715C90.4716 48.9934 90.5982 49.3757 90.6188 49.8184C90.6307 50.0738 90.5998 50.328 90.5263 50.581C90.4527 50.834 90.3249 51.0671 90.1429 51.2803C89.9629 51.4935 89.7193 51.668 89.4121 51.8038C89.1049 51.9397 88.7225 52.0183 88.2649 52.0395L87.9456 52.0544L87.7699 48.2744L88.4211 48.2441L88.5613 51.2579C88.838 51.245 89.0823 51.1782 89.2942 51.0574C89.5063 50.9388 89.6704 50.7754 89.7866 50.5674C89.9028 50.3615 89.9546 50.1223 89.942 49.8499C89.928 49.5498 89.8414 49.2936 89.6823 49.0813C89.5253 48.871 89.326 48.7129 89.0843 48.6068C88.8426 48.5007 88.5866 48.454 88.3163 48.4665L87.8821 48.4867C87.5118 48.5039 87.2008 48.5824 86.9492 48.7221C86.6998 48.8638 86.5135 49.0527 86.3901 49.2888C86.2688 49.5248 86.2152 49.795 86.2294 50.0993C86.2386 50.2973 86.2746 50.4747 86.3373 50.6318C86.4023 50.7909 86.4939 50.9263 86.6122 51.0382C86.7325 51.1499 86.8794 51.2337 87.0526 51.2896L86.8821 52.027C86.6317 51.9619 86.4086 51.8432 86.2129 51.671C86.0193 51.4987 85.8642 51.282 85.7475 51.0208C85.633 50.7595 85.568 50.4628 85.5525 50.1308Z" fill="black"/>
<path d="M88.0154 59.119L85.1426 58.435L85.3173 57.7012L90.0929 58.8383L89.9241 59.5472L89.1779 59.3695L89.1631 59.4317C89.379 59.6013 89.5333 59.8177 89.6262 60.0807C89.7211 60.3443 89.7257 60.6564 89.6398 61.017C89.5628 61.3404 89.4291 61.6075 89.2387 61.8184C89.0504 62.0299 88.8065 62.1711 88.5071 62.2422C88.2097 62.3137 87.8578 62.3011 87.4516 62.2044L84.4171 61.4819L84.5918 60.7481L87.5766 61.4588C87.9517 61.5481 88.2672 61.5203 88.5229 61.3753C88.7807 61.2308 88.9501 60.9886 89.031 60.6487C89.0868 60.4144 89.0859 60.193 89.0282 59.9844C88.9701 59.7778 88.8562 59.5984 88.6865 59.4463C88.5168 59.2942 88.2931 59.1851 88.0154 59.119Z" fill="black"/>
<path d="M81.0573 69.3268C81.2836 68.926 81.573 68.6343 81.9257 68.4517C82.2783 68.2691 82.6647 68.1937 83.0848 68.2253C83.5049 68.257 83.9284 68.3932 84.3551 68.6342C84.7893 68.8793 85.1274 69.1754 85.3694 69.5224C85.6123 69.8724 85.7462 70.2441 85.7712 70.6375C85.7971 71.0338 85.7011 71.4249 85.4832 71.8108C85.3135 72.1114 85.1049 72.3508 84.8574 72.5292C84.6099 72.7075 84.3425 72.8172 84.0551 72.858C83.7678 72.8989 83.4801 72.8625 83.192 72.7487L83.5628 72.0919C83.7859 72.1518 84.0213 72.1379 84.269 72.0502C84.5175 71.9654 84.7235 71.7783 84.8869 71.4888C85.0314 71.2328 85.0914 70.9706 85.0667 70.7022C85.0429 70.4367 84.9407 70.1821 84.7603 69.9383C84.5806 69.6974 84.3294 69.4858 84.0066 69.3036C83.6763 69.1171 83.3594 69.0067 83.0558 68.9723C82.7512 68.9398 82.4772 68.9809 82.2339 69.0955C81.9895 69.212 81.794 69.4001 81.6473 69.6599C81.5509 69.8306 81.4932 70.0023 81.474 70.175C81.4548 70.3476 81.4736 70.5136 81.5305 70.673C81.5873 70.8323 81.6822 70.9764 81.815 71.1052L81.4442 71.762C81.2128 71.5824 81.0373 71.3623 80.9179 71.1015C80.7992 70.8437 80.748 70.5615 80.7644 70.2552C80.7816 69.9517 80.8792 69.6422 81.0573 69.3268Z" fill="black"/>
<path d="M75.1327 74.7004C75.2229 74.6098 75.3108 74.5365 75.3966 74.4806C75.4808 74.4231 75.5433 74.3876 75.5839 74.3739L75.9199 74.9787C75.7574 75.0756 75.6311 75.1783 75.5409 75.287C75.4508 75.3957 75.4074 75.5284 75.4108 75.6851C75.4112 75.8418 75.4674 76.0405 75.5795 76.2813L75.7522 76.6515L80.5305 78.8455L79.9534 79.4255L76.2246 77.6266L76.1886 77.6629L78.0056 81.3828L77.4285 81.9628L74.9112 76.518C74.7976 76.2727 74.7307 76.0423 74.7106 75.8269C74.689 75.61 74.7141 75.4081 74.786 75.2211C74.8563 75.0356 74.9719 74.862 75.1327 74.7004Z" fill="black"/>
<defs>
<filter id="filter0_b_1_771" x="-50" y="-50" width="200" height="200" filterUnits="userSpaceOnUse" color-interpolation-filters="sRGB">
<feFlood flood-opacity="0" result="BackgroundImageFix"/>
<feGaussianBlur in="BackgroundImage" stdDeviation="25"/>
<feComposite in2="SourceAlpha" operator="in" result="effect1_backgroundBlur_1_771"/>
<feBlend mode="normal" in="SourceGraphic" in2="effect1_backgroundBlur_1_771" result="shape"/>
</filter>
</defs>
</svg>
